# xmcd
#
# Track frame offsets: 
#        150
#        22860
#        38594
#        55587
#        74741
#        90067
#        98401
#        118685
#        135310
#        159115
#        178860
#        188463
#
# Disc length: 2873 seconds
#
# Revision: 0
# Processed by: cddbd v1.5.2PL0 Copyright (c) Steve Scherf et al.
# Submitted via: ExactAudioCopy v1.0b3
#
DISCID=7f0b370c
DTITLE=Country Radio - Fleetwood Plain
DYEAR=1970
DGENRE=Country
TTITLE0=Empty Pockets-Leaving the City
TTITLE1=Fleetwood Plain
TTITLE2=Paradise
TTITLE3=Just Goodbye
TTITLE4=I'd Not Let You Be
TTITLE5=Song to David
TTITLE6=Commissar
TTITLE7=Observations From a Second Storey Window
TTITLE8=Windy On The Main
TTITLE9=Susannah Lee
TTITLE10=If You Ever
TTITLE11=Kitty's Song
EXTD=
EXTT0=
EXTT1=
EXTT2=
EXTT3=
EXTT4=
EXTT5=
EXTT6=
EXTT7=
EXTT8=
EXTT9=
EXTT10=
EXTT11=
PLAYORDER=
